<svg width="59" height="46" viewBox="0 0 59 46" fill="none" xmlns="http://www.w3.org/2000/svg">
<path d="M37.5312 0.195312H58.3867V15.1875C58.3867 21.224 57.8424 25.974 56.7539 29.4375C55.7148 32.901 53.7357 36.043 50.8164 38.8633C47.9466 41.6341 44.3099 43.8112 39.9062 45.3945L35.8242 36.7109C39.9805 35.3255 42.9492 33.3958 44.7305 30.9219C46.5612 28.4479 47.5013 25.1576 47.5508 21.0508H37.5312V0.195312ZM2.5 0.195312H23.3555V15.1875C23.3555 21.224 22.8359 25.974 21.7969 29.4375C20.7578 32.901 18.7786 36.043 15.8594 38.8633C12.9896 41.6341 9.32812 43.8112 4.875 45.3945L0.792969 36.7109C4.9987 35.3255 7.99219 33.3958 9.77344 30.9219C11.5547 28.4479 12.4948 25.1576 12.5938 21.0508H2.5V0.195312Z" fill="#E4E7EC"/>
</svg>
