<?xml version="1.0" standalone="no"?>
<!DOCTYPE svg PUBLIC "-//W3C//DTD SVG 20010904//EN"
 "http://www.w3.org/TR/2001/REC-SVG-20010904/DTD/svg10.dtd">
<svg version="1.0" xmlns="http://www.w3.org/2000/svg"
 width="700.000000pt" height="700.000000pt" viewBox="0 0 700.000000 700.000000"
 preserveAspectRatio="xMidYMid meet">
<metadata>
Created by potrace 1.14, written by Peter Selinger 2001-2017
</metadata>
<g transform="translate(0.000000,700.000000) scale(0.100000,-0.100000)"
fill="#000000" stroke="none">
<path d="M2868 5815 c-131 -32 -270 -119 -355 -224 -62 -76 -119 -198 -139
-300 -48 -243 58 -512 258 -654 65 -46 155 -94 161 -86 8 9 127 332 126 343 0
6 -21 25 -47 41 -130 83 -166 262 -79 392 59 88 149 130 260 121 100 -8 177
-60 225 -152 l27 -51 5 -1375 c4 -1103 8 -1383 19 -1415 43 -131 149 -268 255
-330 231 -135 511 -101 696 84 76 77 123 160 150 267 19 74 20 113 20 935 0
832 1 860 20 911 23 63 85 128 150 157 68 31 171 29 238 -5 203 -101 207 -398
8 -501 l-34 -18 65 -175 c36 -96 67 -177 69 -178 1 -2 35 13 76 34 103 53 230
182 280 284 54 109 72 186 71 310 -1 84 -6 121 -27 185 -119 370 -516 564
-872 426 -197 -77 -352 -251 -404 -457 -19 -74 -20 -114 -20 -933 0 -558 -4
-869 -10 -893 -45 -160 -267 -182 -348 -34 -16 29 -17 132 -22 1401 l-5 1370
-28 82 c-71 211 -243 373 -457 432 -88 25 -243 27 -332 6z"/>
<path d="M2185 4313 c-153 -24 -280 -88 -386 -194 -63 -62 -85 -93 -122 -170
-57 -118 -71 -180 -71 -299 1 -113 21 -196 72 -300 49 -101 176 -229 280 -284
41 -21 75 -36 76 -34 2 1 33 82 69 177 l65 175 -42 27 c-92 60 -137 139 -137
244 0 159 121 279 281 278 106 -1 195 -53 245 -144 l30 -54 3 -657 3 -658 189
0 190 0 0 658 c0 619 -1 663 -19 734 -73 286 -316 487 -608 502 -48 2 -101 2
-118 -1z"/>
</g>
</svg>
