<svg width="36" height="36" viewBox="0 0 36 36" fill="none" xmlns="http://www.w3.org/2000/svg">
<rect x="18.1939" y="17.8542" width="17.803" height="18.141" rx="0.711679" fill="#437E88"/>
<mask id="mask0_6_8515" style="mask-type:alpha" maskUnits="userSpaceOnUse" x="18" y="17" width="18" height="19">
<rect x="18.197" y="17.8591" width="17.803" height="18.141" rx="0.711679" fill="#AFAFAF"/>
</mask>
<g mask="url(#mask0_6_8515)">
<path d="M18.3066 17.7754H35.9967V36.0848L18.3066 17.7754Z" fill="#81C0CB"/>
</g>
<path d="M16.5974 35.1732V18.4897C16.5974 17.7417 15.7186 17.3801 15.2283 17.9264L0.255219 34.61C-0.217643 35.1368 0.140852 35.9978 0.833096 35.9978H15.8062C16.2432 35.9978 16.5974 35.6286 16.5974 35.1732Z" fill="#F3BEB3"/>
<path d="M17.6256 0.182451L0.296424 14.7313C-0.285123 15.2195 0.0464074 16.1983 0.793191 16.198L35.2016 16.1809C35.9454 16.1805 36.2778 15.2078 35.7016 14.7175L18.6224 0.185845C18.3327 -0.0606686 17.9169 -0.062085 17.6256 0.182451Z" fill="#E16736"/>
</svg>
