<svg width="12" height="12" viewBox="0 0 12 12" fill="none" xmlns="http://www.w3.org/2000/svg">
<rect x="6.06464" y="5.71082" width="5.93437" height="5.80249" rx="0.369387" fill="white"/>
<mask id="mask0_1378_43317" style="mask-type:alpha" maskUnits="userSpaceOnUse" x="6" y="5" width="6" height="7">
<rect x="6.06561" y="5.71228" width="5.93437" height="5.80249" rx="0.369387" fill="#437E88"/>
</mask>
<g mask="url(#mask0_1378_43317)">
<path d="M6.10214 5.68555H11.9989V11.5419L6.10214 5.68555Z" fill="white"/>
</g>
<path d="M5.53258 11.2504V5.91406C5.53258 5.67481 5.23964 5.55916 5.07621 5.7339L0.0851348 11.0702C-0.0724873 11.2387 0.0470121 11.5141 0.277762 11.5141H5.26883C5.4145 11.5141 5.53258 11.396 5.53258 11.2504Z" fill="white"/>
<path d="M5.87525 0.058358L0.098809 4.71187C-0.0950417 4.86804 0.0154693 5.18113 0.264399 5.18102L11.734 5.17554C11.9819 5.17543 12.0927 4.86429 11.9006 4.70749L6.20752 0.0594436C6.11094 -0.0194052 5.97234 -0.0198583 5.87525 0.058358Z" fill="white"/>
</svg>
