<svg width="32" height="31" viewBox="0 0 32 31" fill="none" xmlns="http://www.w3.org/2000/svg">
<rect x="16.1723" y="15.2288" width="15.825" height="15.4733" rx="0.369387" fill="#1A4243"/>
<mask id="mask0_1138_45623" style="mask-type:alpha" maskUnits="userSpaceOnUse" x="16" y="15" width="16" height="16">
<rect x="16.175" y="15.2328" width="15.825" height="15.4733" rx="0.369387" fill="#35748E"/>
</mask>
<g mask="url(#mask0_1138_45623)">
<path d="M16.2725 15.1615H31.9972V30.7785L16.2725 15.1615Z" fill="#143233"/>
</g>
<path d="M14.7535 30.001V15.7708C14.7535 15.1328 13.9723 14.8244 13.5365 15.2904L0.22696 29.5206C-0.193365 29.97 0.1253 30.7043 0.740632 30.7043H14.0502C14.4386 30.7043 14.7535 30.3894 14.7535 30.001Z" fill="#F3BEB3"/>
<path d="M15.6673 0.155621L0.263491 12.565C-0.253445 12.9814 0.0412514 13.8164 0.705064 13.816L31.2906 13.8014C31.9517 13.8011 32.2472 12.9714 31.735 12.5533L16.5534 0.158516C16.2958 -0.0517472 15.9263 -0.0529553 15.6673 0.155621Z" fill="#E16736"/>
</svg>
